<svg width="27" height="27" viewBox="0 0 27 27" fill="none" xmlns="http://www.w3.org/2000/svg">
<path d="M21.8624 26.4375H4.38758C1.97279 26.4375 0 24.4647 0 22.0499V4.57508C0 2.16029 1.97279 0.1875 4.38758 0.1875H21.8624C24.2772 0.1875 26.25 2.16029 26.25 4.57508V22.0499C26.25 24.4755 24.288 26.4375 21.8624 26.4375Z" fill="black"/>
<path d="M13.1304 20.0556C11.3301 20.0556 9.63756 19.3548 8.36549 18.0828C7.09342 16.8107 6.3927 15.1182 6.3927 13.3179C6.3927 11.5176 7.09342 9.82507 8.36549 8.55299C9.63756 7.28092 11.3301 6.5802 13.1304 6.5802C14.9307 6.5802 16.6232 7.28092 17.8953 8.55299C19.1673 9.82507 19.8681 11.5176 19.8681 13.3179C19.8681 15.1182 19.1673 16.8107 17.8953 18.0828C16.6124 19.3548 14.9307 20.0556 13.1304 20.0556ZM13.1304 8.01398C10.2089 8.01398 7.82648 10.3856 7.82648 13.3179C7.82648 16.2393 10.1981 18.6218 13.1304 18.6218C16.0518 18.6218 18.4343 16.2501 18.4343 13.3179C18.4235 10.3964 16.0518 8.01398 13.1304 8.01398Z" fill="white"/>
<path d="M21.1814 6.35882C21.8958 6.35882 22.475 5.77962 22.475 5.06515C22.475 4.35068 21.8958 3.77148 21.1814 3.77148C20.4669 3.77148 19.8877 4.35068 19.8877 5.06515C19.8877 5.77962 20.4669 6.35882 21.1814 6.35882Z" fill="white"/>
</svg>
