<svg width="33" height="33" viewBox="0 0 33 33" fill="none" xmlns="http://www.w3.org/2000/svg">
<g clip-path="url(#clip0_1039_400)">
<path d="M16.2541 3.44894C20.5926 3.44894 21.1064 3.46797 22.8126 3.54409C24.3983 3.61386 25.2546 3.88026 25.8254 4.10225C26.5802 4.39402 27.1257 4.74922 27.6902 5.31373C28.2611 5.88459 28.6099 6.42373 28.9017 7.17852C29.1237 7.74938 29.3901 8.612 29.4599 10.1914C29.536 11.9039 29.555 12.4177 29.555 16.7498C29.555 21.0883 29.536 21.6021 29.4599 23.3083C29.3901 24.894 29.1237 25.7503 28.9017 26.3212C28.6099 27.076 28.2547 27.6214 27.6902 28.1859C27.1194 28.7568 26.5802 29.1057 25.8254 29.3974C25.2546 29.6194 24.3919 29.8858 22.8126 29.9556C21.1 30.0317 20.5863 30.0507 16.2541 30.0507C11.9156 30.0507 11.4018 30.0317 9.69563 29.9556C8.10992 29.8858 7.25364 29.6194 6.68279 29.3974C5.92799 29.1057 5.38251 28.7505 4.818 28.1859C4.24714 27.6151 3.89829 27.076 3.60652 26.3212C3.38452 25.7503 3.11812 24.8877 3.04835 23.3083C2.97223 21.5958 2.95321 21.082 2.95321 16.7498C2.95321 12.4114 2.97223 11.8976 3.04835 10.1914C3.11812 8.60566 3.38452 7.74938 3.60652 7.17852C3.89829 6.42373 4.25348 5.87824 4.818 5.31373C5.38885 4.74288 5.92799 4.39402 6.68279 4.10225C7.25364 3.88026 8.11626 3.61386 9.69563 3.54409C11.4018 3.46797 11.9156 3.44894 16.2541 3.44894ZM16.2541 0.524902C11.8458 0.524902 11.294 0.543931 9.56243 0.620045C7.83718 0.696159 6.65107 0.975243 5.62353 1.37484C4.5516 1.79347 3.64457 2.34529 2.74389 3.25232C1.83687 4.153 1.28504 5.06002 0.866418 6.12561C0.46682 7.15949 0.187736 8.33926 0.111622 10.0645C0.035508 11.8024 0.0164795 12.3543 0.0164795 16.7625C0.0164795 21.1708 0.035508 21.7226 0.111622 23.4542C0.187736 25.1794 0.46682 26.3656 0.866418 27.3931C1.28504 28.465 1.83687 29.3721 2.74389 30.2727C3.64457 31.1734 4.5516 31.7316 5.61719 32.1439C6.65107 32.5435 7.83084 32.8225 9.55608 32.8987C11.2877 32.9748 11.8395 32.9938 16.2478 32.9938C20.656 32.9938 21.2078 32.9748 22.9394 32.8987C24.6647 32.8225 25.8508 32.5435 26.8783 32.1439C27.9439 31.7316 28.8509 31.1734 29.7516 30.2727C30.6523 29.3721 31.2105 28.465 31.6228 27.3994C32.0224 26.3656 32.3014 25.1858 32.3776 23.4605C32.4537 21.729 32.4727 21.1771 32.4727 16.7689C32.4727 12.3606 32.4537 11.8088 32.3776 10.0772C32.3014 8.35194 32.0224 7.16584 31.6228 6.1383C31.2232 5.06002 30.6713 4.153 29.7643 3.25232C28.8636 2.35163 27.9566 1.79347 26.891 1.38118C25.8571 0.981585 24.6774 0.702501 22.9521 0.626387C21.2142 0.543931 20.6624 0.524902 16.2541 0.524902Z" fill="white"/>
<path d="M16.254 8.42188C11.6491 8.42188 7.91321 12.1578 7.91321 16.7627C7.91321 21.3676 11.6491 25.1035 16.254 25.1035C20.8589 25.1035 24.5948 21.3676 24.5948 16.7627C24.5948 12.1578 20.8589 8.42188 16.254 8.42188ZM16.254 22.1731C13.2666 22.1731 10.8436 19.7502 10.8436 16.7627C10.8436 13.7752 13.2666 11.3523 16.254 11.3523C19.2415 11.3523 21.6644 13.7752 21.6644 16.7627C21.6644 19.7502 19.2415 22.1731 16.254 22.1731Z" fill="white"/>
<path d="M26.8719 8.09178C26.8719 9.17006 25.9966 10.039 24.9247 10.039C23.8464 10.039 22.9774 9.16372 22.9774 8.09178C22.9774 7.0135 23.8527 6.14453 24.9247 6.14453C25.9966 6.14453 26.8719 7.01984 26.8719 8.09178Z" fill="white"/>
</g>
<defs>
<clipPath id="clip0_1039_400">
<rect width="32.4752" height="32.4752" fill="white" transform="translate(0.0164795 0.524902)"/>
</clipPath>
</defs>
</svg>
