<svg width="72" height="82" viewBox="0 0 72 82" fill="none" xmlns="http://www.w3.org/2000/svg">
<g clip-path="url(#clip0_252_22)">
<path d="M48.3192 82H23.6793C22.6725 81.3978 22.3455 80.7871 22.5742 79.9479C22.7858 79.1791 23.4271 78.8011 24.5365 78.799C25.5925 78.799 26.6484 78.799 27.7386 78.799C28.2879 75.8094 28.8223 72.9138 29.376 69.8986C28.9399 69.8986 28.6278 69.8986 28.3157 69.8986C21.9992 69.8986 15.6827 69.9029 9.36612 69.8922C8.62224 69.8922 7.8634 69.873 7.1409 69.7235C2.83155 68.8416 0.00994546 65.3267 0.00567031 60.8444C-0.00501757 49.7467 -0.00074242 38.6489 0.00353273 27.5511C0.00353273 22.0247 3.76353 18.2664 9.28703 18.2578C10.0245 18.2578 10.7598 18.2578 11.5507 18.2578C11.5507 17.8371 11.5507 17.5211 11.5507 17.2051C11.5507 13.1499 11.54 9.09474 11.555 5.03958C11.5635 2.60307 12.891 0.834948 15.1632 0.158021C15.2851 0.121719 15.3984 0.0533854 15.5159 0C29.1708 0 42.8235 0 56.4783 0C59.6804 1.3026 60.4457 2.46 60.4457 6.00052C60.4457 9.78875 60.4457 13.577 60.4457 17.3652C60.4457 17.6449 60.4457 17.9268 60.4457 18.2578C61.3327 18.2578 62.1001 18.2557 62.8697 18.2578C68.1922 18.2813 71.9864 22.0674 71.9907 27.391C71.9993 38.5144 71.9971 49.6399 71.9843 60.7633C71.9843 61.5299 71.9202 62.3157 71.7449 63.061C70.7701 67.2251 67.3222 69.8794 62.8718 69.8901C56.4762 69.9071 50.0784 69.8943 43.6828 69.8943C43.3707 69.8943 43.0586 69.8943 42.6204 69.8943C43.1804 72.9309 43.7191 75.8479 44.2621 78.7947C45.5168 78.7947 46.6882 78.7712 47.8575 78.8011C48.9006 78.8268 49.5461 79.5848 49.4606 80.5778C49.3987 81.3188 48.8835 81.6733 48.317 81.9936L48.3192 82ZM14.7998 11.5099V58.3011H57.1858V11.5099H14.7998ZM68.7266 61.6559H3.21417C3.31464 62.0872 3.37022 62.4268 3.47282 62.7556C4.23807 65.2199 6.33931 66.6912 9.1374 66.6933C27.0503 66.6976 44.9632 66.6955 62.8761 66.6933C63.1155 66.6933 63.3549 66.6848 63.5943 66.6656C66.3219 66.4648 68.3974 64.464 68.7266 61.6559ZM11.4887 58.3246V29.8489H3.24624V58.3246H11.4887ZM68.7416 58.3182V29.8424H60.4905V58.3182H68.7416ZM14.7742 8.17865H57.1858C57.2158 8.04839 57.2371 7.995 57.2371 7.94375C57.2414 7.08958 57.2478 6.23755 57.2457 5.38339C57.2436 3.71562 56.722 3.20312 55.0312 3.20312C42.3468 3.20312 29.6624 3.20312 16.978 3.20312C16.7643 3.20312 16.5505 3.19458 16.3389 3.20953C15.486 3.27146 14.8426 3.80104 14.7913 4.65307C14.7229 5.81474 14.7742 6.98495 14.7742 8.17865ZM40.998 78.7627C40.4721 75.9055 39.9677 73.1295 39.4311 70.3598C39.3969 70.1805 39.1062 69.9221 38.9331 69.9199C36.8575 69.8901 34.7819 69.9007 32.6401 69.9007C32.0907 72.8711 31.5499 75.7923 30.9984 78.7648H41.0001L40.998 78.7627ZM11.4909 26.5603V21.5165C6.56803 21.0552 3.2954 23.0817 3.31678 26.5603H11.4909ZM60.482 26.5539H68.7074C68.5834 24.2348 66.8562 22.1037 64.5519 21.6638C63.2395 21.414 61.8693 21.4716 60.4841 21.3883V26.5539H60.482Z" fill="#FD6F00"/>
<path d="M16.7688 38.5015C16.7688 34.314 16.7666 30.1264 16.7688 25.9389C16.7709 23.2632 18.2544 21.7748 20.9135 21.7706C23.205 21.7663 25.4965 21.762 27.788 21.7706C30.1479 21.7812 31.734 23.2867 31.7404 25.6527C31.766 34.2414 31.766 42.83 31.7404 51.4187C31.734 53.7869 30.165 55.2881 27.7944 55.303C25.4238 55.318 23.0511 55.3222 20.6805 55.303C18.3164 55.2838 16.7795 53.7484 16.773 51.3845C16.7581 47.0902 16.7688 42.7959 16.7688 38.5015ZM28.5554 38.6019C28.5554 34.4165 28.549 30.2289 28.5618 26.0435C28.5639 25.3517 28.4314 24.9438 27.5956 24.9587C25.3597 24.9993 23.1195 24.9908 20.8836 24.963C20.1782 24.9545 19.958 25.2385 19.9602 25.9154C19.973 34.3418 19.9751 42.7681 19.9602 51.1923C19.9602 51.9034 20.2445 52.1212 20.9135 52.1148C23.0703 52.0913 25.2293 52.1084 27.3861 52.1063C28.487 52.1063 28.5532 52.038 28.5554 50.9233C28.5575 46.8169 28.5554 42.7105 28.5554 38.604V38.6019Z" fill="black"/>
<path d="M44.7881 21.7706C46.9193 21.7706 49.0526 21.762 51.1838 21.7727C53.4924 21.7855 55.0613 23.3017 55.0913 25.6143C55.1276 28.3071 55.1255 31.002 55.0913 33.6969C55.0635 35.9775 53.5608 37.5257 51.2714 37.5492C46.9279 37.5962 42.5843 37.5983 38.2407 37.5492C35.8916 37.5236 34.4059 35.9113 34.3995 33.5453C34.3931 30.9571 34.3931 28.3712 34.3995 25.783C34.4059 23.3401 35.9557 21.7813 38.3904 21.7706C40.5215 21.762 42.6548 21.7706 44.786 21.7706H44.7881ZM37.5995 29.3406C38.3027 28.7662 38.8585 28.2815 39.4463 27.8373C40.8849 26.7461 42.6848 26.7632 44.0998 27.8757C44.6022 28.2708 45.1195 28.6594 45.562 29.1164C46.1412 29.7143 46.6136 29.6396 47.1822 29.0993C48.4306 27.9078 49.8734 27.6878 51.4595 28.3562C51.575 28.4053 51.6989 28.4309 51.8999 28.4929C51.8999 27.5042 51.9041 26.5731 51.8999 25.6442C51.8956 25.1296 51.5942 24.9673 51.1175 24.9694C46.883 24.9758 42.6484 24.9758 38.4139 24.9694C37.8368 24.9694 37.5931 25.2193 37.6016 25.7894C37.6166 26.9084 37.6059 28.0274 37.6059 29.3406H37.5995ZM44.7176 34.3631C46.7932 34.3631 48.8709 34.3824 50.9465 34.3439C51.2543 34.3375 51.8015 34.0855 51.8165 33.9104C51.8678 33.304 52.2333 32.5907 51.5044 32.0953C50.4371 31.3707 49.5706 31.2782 48.9051 31.8177C47.272 33.1481 45.4337 33.1481 43.8113 31.8156C43.3581 31.444 42.8943 31.0831 42.4774 30.6731C41.9858 30.1905 41.5711 30.1692 41.041 30.6454C40.1111 31.4803 39.1129 32.2405 38.1766 33.0712C37.9329 33.2869 37.8111 33.6435 37.6337 33.9339C37.9714 34.077 38.307 34.3396 38.649 34.346C40.6712 34.3845 42.6955 34.3653 44.7176 34.3653V34.3631Z" fill="black"/>
<path d="M44.7454 55.3073C42.6399 55.3073 40.5344 55.3158 38.431 55.3051C35.9322 55.2923 34.4059 53.7527 34.3995 51.2542C34.3953 48.6683 34.391 46.0801 34.3995 43.4941C34.4081 41.1409 35.945 39.5522 38.2814 39.5415C42.5971 39.518 46.915 39.518 51.2308 39.5415C53.5095 39.5543 55.0549 41.0747 55.087 43.3489C55.1255 46.0695 55.1255 48.79 55.087 51.5105C55.0528 53.7826 53.5009 55.2838 51.218 55.3051C49.059 55.3265 46.9022 55.3094 44.7433 55.3115L44.7454 55.3073ZM49.7559 52.1063C50.1877 52.1063 50.5062 52.1063 50.8247 52.1063C51.8208 52.0977 51.8999 52.023 51.8999 50.9937C51.9041 48.5658 51.8849 46.1356 51.9106 43.7077C51.9191 42.988 51.6583 42.719 50.9273 42.7233C46.821 42.7467 42.7147 42.7467 38.6106 42.7233C37.8496 42.719 37.5717 42.9838 37.5845 43.7504C37.6187 45.9648 37.5973 48.1792 37.5973 50.3958C37.5973 52.2066 37.6209 52.228 39.4335 52.0956C39.5083 52.0892 39.581 52.0529 39.7349 52.0059C39.7969 50.3189 39.5083 48.5359 40.8572 47.1158C42.2231 45.6765 43.9609 45.7748 45.6988 45.8196C46.7205 45.8452 47.614 46.2061 48.3921 46.8809C49.9953 48.2753 49.758 50.1759 49.7559 52.1063ZM46.5517 52.0764C46.5517 51.3183 46.573 50.6307 46.5452 49.9452C46.5196 49.3388 46.1348 48.9629 45.5598 49.0377C44.6898 49.153 43.4821 48.4547 43.0482 49.7189C42.8088 50.4172 43.0054 51.2671 43.0054 52.0764H46.5538H46.5517Z" fill="black"/>
<path d="M39.1193 18.828C34.4551 18.828 29.7909 18.8322 25.1267 18.8258C23.9019 18.8258 23.2158 18.2663 23.1794 17.2926C23.1495 16.4576 23.686 15.7914 24.5133 15.6718C24.8275 15.627 25.1503 15.6291 25.4709 15.6291C34.5877 15.6291 43.7023 15.6291 52.8191 15.6291C53.1376 15.6291 53.4625 15.6291 53.7746 15.6761C54.5377 15.7935 55.0571 16.3957 55.0849 17.1581C55.1148 17.9653 54.6189 18.6208 53.828 18.766C53.4903 18.828 53.1397 18.8258 52.7934 18.8258C48.2361 18.8301 43.6766 18.828 39.1193 18.8258V18.828Z" fill="#FD6F00"/>
<path d="M16.7773 17.2243C16.7773 16.3359 17.4528 15.6526 18.3378 15.6441C19.2142 15.6355 19.9324 16.321 19.9581 17.1837C19.9837 18.0678 19.2334 18.8216 18.3378 18.8109C17.4635 18.8002 16.7773 18.1041 16.7773 17.2221V17.2243Z" fill="#FD6F00"/>
<path d="M53.0563 4.15125C53.4282 4.15125 53.8044 4.12349 54.1742 4.15765C54.9673 4.22812 55.5551 4.84099 55.6171 5.61828C55.6748 6.35286 55.2152 7.12802 54.4628 7.21984C53.4966 7.33515 52.4962 7.34156 51.5301 7.22625C50.7327 7.13015 50.3052 6.37208 50.3779 5.55849C50.4463 4.7812 51.032 4.21104 51.8571 4.15338C52.2547 4.12562 52.6566 4.14911 53.0563 4.14911V4.15338V4.15125Z" fill="#FD6F00"/>
<path d="M24.2097 35.07C23.5984 35.07 22.987 35.0956 22.3778 35.0635C21.4779 35.0144 20.8131 34.314 20.8174 33.4663C20.8217 32.6185 21.4865 31.9095 22.3907 31.8839C23.6369 31.8497 24.8874 31.8476 26.1336 31.8839C27.0506 31.9117 27.6854 32.6057 27.6812 33.4769C27.6769 34.3461 27.0378 35.0166 26.1207 35.0614C25.4859 35.0934 24.8467 35.0678 24.2097 35.0678V35.07Z" fill="black"/>
<path d="M24.3145 42.6037C24.8724 42.6037 25.4303 42.5909 25.9882 42.6058C27.0142 42.6357 27.6918 43.2913 27.6811 44.2223C27.6704 45.1192 27.0057 45.7769 26.0267 45.7961C24.8317 45.8196 23.6368 45.8218 22.4419 45.7961C21.4929 45.7726 20.8024 45.0594 20.8152 44.1839C20.8281 43.3062 21.5206 42.6507 22.4825 42.6058C22.536 42.6037 22.5894 42.6058 22.6429 42.6058C23.2008 42.6058 23.7587 42.6058 24.3166 42.6058L24.3145 42.6037Z" fill="black"/>
<path d="M24.3059 26.5261C24.9194 26.5261 25.5329 26.4984 26.1442 26.5325C27.0463 26.5838 27.6576 27.2159 27.6812 28.0594C27.7047 28.9071 27.1361 29.6204 26.2383 29.6673C24.9365 29.7335 23.6262 29.7335 22.3244 29.6759C21.3924 29.6353 20.7746 28.89 20.8174 28.038C20.858 27.2031 21.4843 26.5987 22.3864 26.5261C22.4398 26.5219 22.4933 26.5197 22.5467 26.5197C23.1324 26.5197 23.7202 26.5197 24.3059 26.5197C24.3059 26.5219 24.3059 26.524 24.3059 26.5261Z" fill="black"/>
<path d="M24.2097 40.4277C23.5962 40.4277 22.9806 40.4662 22.3714 40.4192C21.4266 40.3445 20.8002 39.6718 20.8152 38.8155C20.828 37.9549 21.4779 37.2887 22.4184 37.2631C23.6432 37.2289 24.8723 37.2289 26.0972 37.2631C27.042 37.2887 27.6747 37.9507 27.6832 38.824C27.6918 39.6718 27.1125 40.2975 26.2083 40.4192C26.1292 40.4299 26.0501 40.4427 25.9689 40.4427C25.3832 40.4427 24.7954 40.4427 24.2097 40.4427C24.2097 40.4384 24.2097 40.432 24.2097 40.4277Z" fill="black"/>
<path d="M24.2845 47.9849C24.898 47.9849 25.5115 47.9593 26.1229 47.9913C27.0292 48.0404 27.6469 48.6576 27.679 49.4989C27.7153 50.3766 27.1232 51.092 26.1784 51.1368C24.9023 51.1966 23.6197 51.1966 22.3436 51.1389C21.4052 51.0962 20.7853 50.3723 20.8152 49.5182C20.8452 48.6576 21.4929 48.0298 22.4441 47.9892C23.0554 47.9614 23.671 47.9849 24.2824 47.9871L24.2845 47.9849Z" fill="black"/>
</g>
<defs>
<clipPath id="clip0_252_22">
<rect width="72" height="82" fill="white" transform="translate(-0.000488281)"/>
</clipPath>
</defs>
</svg>
