<svg width="31" height="31" viewBox="0 0 31 31" fill="none" xmlns="http://www.w3.org/2000/svg">
<path d="M6.91537 10.0707H0.516113V30.4776H6.91537V10.0707Z" fill="black"/>
<path d="M24.2258 9.62836C23.9899 9.59887 23.7392 9.58412 23.4885 9.56938C19.9055 9.42193 17.8855 11.5452 17.1778 12.4594C16.9861 12.71 16.8976 12.8575 16.8976 12.8575V10.1297H10.7785V30.5365H16.8976H17.1778C17.1778 28.4575 17.1778 26.3932 17.1778 24.3142C17.1778 23.1936 17.1778 22.073 17.1778 20.9524C17.1778 19.5664 17.0746 18.0919 17.7676 16.8238C18.3574 15.7622 19.419 15.2314 20.6133 15.2314C24.1521 15.2314 24.2258 18.431 24.2258 18.7259C24.2258 18.7407 24.2258 18.7554 24.2258 18.7554V30.625H30.625V17.3104C30.625 12.7543 28.3101 10.0707 24.2258 9.62836Z" fill="black"/>
<path d="M3.71569 7.4314C5.76781 7.4314 7.4314 5.76782 7.4314 3.7157C7.4314 1.66357 5.76781 0 3.71569 0C1.66357 0 0 1.66357 0 3.7157C0 5.76782 1.66357 7.4314 3.71569 7.4314Z" fill="black"/>
</svg>
