<svg width="33" height="33" viewBox="0 0 33 33" fill="none" xmlns="http://www.w3.org/2000/svg">
<g clip-path="url(#clip0_1039_401)">
<path d="M10.7247 29.9555C22.9765 29.9555 29.6796 19.8025 29.6796 11.0006C29.6796 10.7152 29.6732 10.4234 29.6605 10.138C30.9645 9.19496 32.0898 8.02692 32.9835 6.68873C31.7691 7.22904 30.4798 7.58191 29.1595 7.7353C30.5496 6.902 31.5905 5.59293 32.0892 4.05075C30.7814 4.82581 29.3512 5.37255 27.8598 5.66754C26.855 4.59985 25.5264 3.89291 24.0795 3.65602C22.6326 3.41913 21.1479 3.66549 19.8551 4.35701C18.5622 5.04852 17.5332 6.14667 16.927 7.48169C16.3209 8.8167 16.1714 10.3142 16.5017 11.7427C13.8536 11.6098 11.2629 10.9219 8.89771 9.72354C6.5325 8.5252 4.44551 6.84318 2.77205 4.78652C1.92151 6.25295 1.66125 7.98821 2.04415 9.63964C2.42705 11.2911 3.42439 12.7347 4.83347 13.6773C3.77562 13.6437 2.74094 13.3589 1.81492 12.8463V12.9288C1.81397 14.4677 2.34599 15.9595 3.32053 17.1505C4.29508 18.3415 5.65201 19.1582 7.16065 19.4619C6.18072 19.73 5.15224 19.7691 4.15479 19.5761C4.5805 20.8995 5.40878 22.0571 6.52403 22.8872C7.63928 23.7172 8.98586 24.1784 10.3758 24.2063C8.01607 26.06 5.10108 27.0654 2.10035 27.0606C1.56819 27.0598 1.03656 27.0272 0.508301 26.9629C3.55672 28.9186 7.10285 29.9574 10.7247 29.9555Z" fill="white"/>
</g>
<defs>
<clipPath id="clip0_1039_401">
<rect width="32.4752" height="32.4752" fill="white" transform="translate(0.508301 0.524902)"/>
</clipPath>
</defs>
</svg>
