<svg width="30" height="26" viewBox="0 0 30 26" fill="none" xmlns="http://www.w3.org/2000/svg">
<path d="M0 22.2734C3.22926 22.4539 6.05312 21.7042 8.80708 19.7189C6.02516 19.2469 4.096 17.9835 3.04754 15.3734C3.85835 15.2623 4.57131 15.4706 5.41008 15.1374C2.67009 13.9434 0.894691 12.1524 0.824794 9.05643C1.69152 9.12584 2.34857 9.69506 3.38305 9.61176C0.866739 7.16828 0.0978565 4.50266 1.67754 1.26782C4.30569 4.26664 7.38119 6.30751 11.1417 7.26546C11.3514 7.321 11.5471 7.37653 11.7568 7.41818C12.7213 7.64032 13.8677 8.11235 14.4548 8.04294C15.4613 7.91798 14.4548 6.76566 14.7064 5.26625C15.5033 0.60142 20.6757 -1.52274 24.5061 1.21229C25.6244 2.01753 26.5051 2.00365 27.6095 1.51773C28.1827 1.26782 28.7698 1.01792 29.4548 0.726371C29.301 2.05918 28.2666 2.795 27.4418 3.78072C28.3784 3.98898 29.1333 3.72519 30 3.44752C29.7064 4.40548 28.9795 4.94693 28.3225 5.4745C27.6375 6.01596 27.3719 6.58518 27.3439 7.47372C26.9245 20.9268 11.5331 31.3254 1.00653 23.0509C-0.0139693 22.2457 0.978565 23.0509 0 22.2734Z" fill="black"/>
</svg>
